<svg xmlns="http://www.w3.org/2000/svg" width="24.8" height="28" viewBox="0 0 24.8 28">
  <path id="Path_3" data-name="Path 3" d="M1.6,4A2.4,2.4,0,0,1,4,1.6v8H1.6ZM4,11.2H0V4A4,4,0,0,1,4,0H20.8a4,4,0,0,1,4,4V24a4,4,0,0,1-4,4H8a4,4,0,0,1-4-4ZM5.6,1.6V24A2.4,2.4,0,0,0,8,26.4H20.8A2.4,2.4,0,0,0,23.2,24V4a2.4,2.4,0,0,0-2.4-2.4Zm3.2,4a.8.8,0,0,1,.8-.8h9.6a.8.8,0,0,1,0,1.6H9.6A.8.8,0,0,1,8.8,5.6Zm.8,3.2a.8.8,0,1,0,0,1.6h9.6a.8.8,0,0,0,0-1.6Zm-.8,4.8a.8.8,0,0,1,.8-.8h9.6a.8.8,0,0,1,0,1.6H9.6A.8.8,0,0,1,8.8,13.6Zm.8,3.2a.8.8,0,1,0,0,1.6h9.6a.8.8,0,0,0,0-1.6Z" fill="#fff" fill-rule="evenodd"/>
</svg>
