<svg xmlns="http://www.w3.org/2000/svg" width="18" height="30" viewBox="0 0 18 30">
  <path id="Path_1" data-name="Path 1" d="M14.667,1.333H3.333a2,2,0,0,0-2,2H16.667A2,2,0,0,0,14.667,1.333Zm2,3.333H1.333V25.333H8.667V15.219L6.748,17.138A.667.667,0,0,1,5.8,16.2l3.056-3.056h0a.666.666,0,0,1,.943,0h0L12.862,16.2a.667.667,0,0,1-.943.943L10,15.219V26a.667.667,0,0,1-.667.667h-8a2,2,0,0,0,2,2H14.667a2,2,0,0,0,2-2H12a.667.667,0,0,1,0-1.333h4.667ZM14.667,30A3.333,3.333,0,0,0,18,26.667V3.333A3.333,3.333,0,0,0,14.667,0H3.333A3.333,3.333,0,0,0,0,3.333V26.667A3.333,3.333,0,0,0,3.333,30Z" fill="#fff" fill-rule="evenodd"/>
</svg>
