<svg xmlns="http://www.w3.org/2000/svg" width="24.279" height="24" viewBox="0 0 24.279 24">
  <path id="Path_2" data-name="Path 2" d="M17.761.042a.758.758,0,0,1,.683.1.759.759,0,0,1,.514.6l.716,4.3h.812a3.79,3.79,0,0,1,3.794,3.789V20.207A3.793,3.793,0,0,1,20.485,24H3.794A3.794,3.794,0,0,1,0,20.206V8.826A3.8,3.8,0,0,1,3.119,5.092l.048-.018Zm-.179,1.667.554,3.324H7.942ZM3.794,6.55H20.485a2.272,2.272,0,0,1,2.276,2.272V20.207a2.276,2.276,0,0,1-2.276,2.276H3.794a2.276,2.276,0,0,1-2.276-2.276V8.826A2.276,2.276,0,0,1,3.794,6.55Zm8.346,3.035a.759.759,0,0,1,.759.759v3.035h3.035a.759.759,0,1,1,0,1.517H12.9V17.93a.759.759,0,1,1-1.517,0V14.9H8.346a.759.759,0,1,1,0-1.517h3.035V10.343A.759.759,0,0,1,12.139,9.585Z" fill="#fff" fill-rule="evenodd"/>
</svg>
